<?xml version="1.0" encoding="UTF-8"?>
<!DOCTYPE svg PUBLIC "-//W3C//DTD SVG 1.1//EN" "http://www.w3.org/Graphics/SVG/1.1/DTD/svg11.dtd">
<!-- Creator: CorelDRAW X8 -->
<svg xmlns="http://www.w3.org/2000/svg" xml:space="preserve" width="5in" height="9.666in" version="1.1" style="shape-rendering:geometricPrecision; text-rendering:geometricPrecision; image-rendering:optimizeQuality; fill-rule:evenodd; clip-rule:evenodd"
viewBox="0 0 5000 9666"
 xmlns:xlink="http://www.w3.org/1999/xlink"
 data-name="Layer 1">
 <defs>
  <style type="text/css">
   <![CDATA[
    .fil1 {fill:#2F2E41}
    .fil2 {fill:#CCCCCC}
    .fil0 {fill:#F9DCC4}
   ]]>
  </style>
 </defs>
 <g id="Layer_x0020_1">
  <metadata id="CorelCorpID_0Corel-Layer"/>
  <g id="_2449391263728">
   <path class="fil0" d="M1608 5090c18,-35 28,-74 28,-113 0,-101 -65,-192 -161,-224l-39 -537 -333 -56 66 758c-5,20 -8,40 -8,60 0,131 106,237 237,237 88,0 168,-48 210,-125l0 0z"/>
   <polygon class="fil0" points="2613,9350 2921,9350 3068,8160 2613,8160 "/>
   <path class="fil1" d="M2534 9250l608 -1 0 0c213,0 387,174 387,388l0 12 -995 0 0 -399z"/>
   <polygon class="fil0" points="1607,9350 1915,9350 2062,8160 1607,8160 "/>
   <path class="fil1" d="M1528 9250l607 -1 0 0c214,0 387,174 387,388l0 12 -994 0 0 -399z"/>
   <polygon class="fil1" points="1526,4137 1375,4990 1576,8965 2029,8965 2279,7010 2381,5518 2542,8965 3010,8999 3281,7023 3350,5053 3277,4137 "/>
   <path class="fil2" d="M2142 1530l679 126 189 2428c0,0 -830,378 -1132,50 -302,-327 264,-2604 264,-2604z"/>
   <path class="fil1" d="M3463 2021l-642 -365 -88 1673c0,0 -25,1963 478,1963l378 -126 -202 -1635 76 -1510z"/>
   <path class="fil1" d="M1375 1870l767 -340 88 1472c0,0 252,1963 -553,2038 0,0 -227,25 -327,-151l150 -1459 -125 -1560z"/>
   <path class="fil1" d="M1526 1946l-151 -76c0,0 -76,0 -101,50 -25,51 -340,1510 -340,1510l193 1363 373 -181 -77 -1138 103 -1528z"/>
   <path class="fil0" d="M3189 5262c-25,-38 -39,-83 -39,-128 0,-95 57,-181 144,-218l-3 -539 327 -82 -6 761c9,25 13,52 13,78 0,131 -106,237 -237,237 -81,0 -156,-41 -199,-109l0 0z"/>
   <path class="fil1" d="M3186 2046l277 -25c0,0 101,36 126,345 25,309 25,1084 25,1084l75 1389 -427 0 -126 -1409 50 -1384z"/>
   <circle class="fil0" cx="2566" cy="730" r="591"/>
   <path class="fil1" d="M2477 851l-8 -141c-2,-33 8,-78 41,-76 28,2 90,13 98,4 31,-32 94,1 127,-29 14,-13 20,-35 39,-40 2,-1 4,-1 7,-1 10,0 20,3 28,9 29,16 61,26 94,28 2,1 4,1 6,1 32,0 61,-16 79,-43 2,-7 7,-13 12,-18 5,-3 11,-4 17,-4 2,0 4,0 6,0l102 7c1,-9 1,-18 1,-26 0,-101 -41,-198 -113,-270 -50,-45 -107,-82 -168,-109 -69,-33 -140,-63 -212,-90 -78,-30 -160,-57 -244,-52 -84,4 -171,44 -209,119 -28,-12 -51,-33 -66,-59 -7,9 -11,20 -11,32 0,21 12,39 31,48l-92 -35c-19,29 35,63 21,94 -4,8 -11,15 -19,19 -41,26 -76,60 -104,100 -38,56 -50,125 -59,193 -21,149 -23,316 72,433 11,13 164,237 180,243 53,23 7,-49 50,-10 33,31 0,-105 45,-83 13,5 27,8 41,8 24,0 48,-9 66,-25 14,-14 -4,-76 -24,-131 -3,-7 -5,-15 -5,-24 0,-37 31,-68 69,-68 1,0 1,0 2,0 51,1 101,1 100,-4z"/>
   <path class="fil2" d="M4980 9666l-4960 0c-11,0 -20,-9 -20,-20 0,-11 9,-20 20,-20l4960 0c11,0 20,9 20,20 0,11 -9,20 -20,20l0 0z"/>
  </g>
 </g>
</svg>
